# xmcd CD database file generated by Grip 3.2.0
# 
# Track frame offsets:
#       183
#       10628
#       44005
#       57863
#       77468
#       95053
#       130543
#       143785
#       166243
#       181895
#       199980
#       236348
#       246163
#       290668
#       309828
#       325795
# 
# Disc length: 4733 seconds
# 
# Revision: 4
# Processed by: cddbd v1.5.2PL0 Copyright (c) Steve Scherf et al.
# Submitted via: Grip 3.2.0
# 
DISCID=d1127b10
DTITLE=Various Artist - Blues Legends [CD3]
DYEAR=1993
DGENRE=Blues
TTITLE0=U.P. Wilson With Paul Orta and The Kingpins - Enter The Tornado
TTITLE1=U.P. Wilson - Hold On Baby
TTITLE2=J.B. Hutto - Speak My Mind
TTITLE3=Big Walter 'Shaky' Horton - Jukin' With Walter
TTITLE4=Memphis Slim - Wish Me Well
TTITLE5=Albert Collins - I've Got A Mind To Travel
TTITLE6=Sonny Boy Williamson - Bye Bye Bird
TTITLE7=Charlie Musselwhite - Christo Redemptor
TTITLE8=Sonny Boy Williamson - All My Love In Vain
TTITLE9=Muddy Waters - Honey Bee
TTITLE10=Jimi Hendrix - Outside Woman Blues
TTITLE11=Jimi Hendrix - Sunshine Of Your Love
TTITLE12=Luther Allison - The Thrill Is Gone
TTITLE13=Mississippi Fred McDowell and Jo-Ann Kelly - When I Lay My Burden Do
TTITLE13=wn
TTITLE14=Big Walter 'Shaky' Horton - That Ain't It
TTITLE15=Buddy Guy and Junior Wells - How Can One Woman Treat A Man So Mean?
EXTD=
EXTT0=
EXTT1=
EXTT2=
EXTT3=
EXTT4=
EXTT5=
EXTT6=
EXTT7=
EXTT8=
EXTT9=
EXTT10=
EXTT11=
EXTT12=
EXTT13=
EXTT14=
EXTT15=
PLAYORDER=
